<?xml version="1.0" encoding="iso-8859-1"?>
<!-- Generator: Adobe Illustrator 19.0.0, SVG Export Plug-In . SVG Version: 6.00 Build 0)  -->
<svg version="1.1" id="Capa_1" xmlns="http://www.w3.org/2000/svg" xmlns:xlink="http://www.w3.org/1999/xlink" x="0px" y="0px"
	 viewBox="0 0 197.974 197.974" style="enable-background:new 0 0 197.974 197.974;" xml:space="preserve">
<g>
	<g>
		<path d="M194.56,184.321c-1.884,0-3.413,1.528-3.413,3.413v3.413h-3.413c-1.884,0-3.413,1.527-3.413,3.413
			c0,1.886,1.529,3.413,3.413,3.413h6.827c1.884,0,3.413-1.527,3.413-3.413v-6.827C197.973,185.849,196.444,184.321,194.56,184.321z
			"/>
	</g>
</g>
<g>
	<g>
		<path d="M171.599,191.147h-16.135c-1.884,0-3.413,1.527-3.413,3.413s1.529,3.413,3.413,3.413h16.135
			c1.884,0,3.413-1.527,3.413-3.413S173.483,191.147,171.599,191.147z"/>
	</g>
</g>
<g>
	<g>
		<path d="M139.327,191.147h-16.135c-1.884,0-3.413,1.527-3.413,3.413s1.529,3.413,3.413,3.413h16.135
			c1.884,0,3.413-1.527,3.413-3.413S141.211,191.147,139.327,191.147z"/>
	</g>
</g>
<g>
	<g>
		<path d="M42.511,191.147H26.376c-1.884,0-3.413,1.527-3.413,3.413s1.529,3.413,3.413,3.413h16.135
			c1.886,0,3.413-1.527,3.413-3.413S44.396,191.147,42.511,191.147z"/>
	</g>
</g>
<g>
	<g>
		<path d="M74.783,191.147H58.648c-1.884,0-3.413,1.527-3.413,3.413s1.529,3.413,3.413,3.413h16.135
			c1.886,0,3.413-1.527,3.413-3.413S76.667,191.147,74.783,191.147z"/>
	</g>
</g>
<g>
	<g>
		<path d="M107.056,191.147H90.921c-1.884,0-3.413,1.527-3.413,3.413s1.529,3.413,3.413,3.413h16.135
			c1.884,0,3.413-1.527,3.413-3.413S108.94,191.147,107.056,191.147z"/>
	</g>
</g>
<g>
	<g>
		<path d="M10.24,191.147H6.827v-3.413c0-1.886-1.529-3.413-3.413-3.413S0,185.849,0,187.733v6.827c0,1.886,1.529,3.413,3.413,3.413
			h6.827c1.884,0,3.413-1.527,3.413-3.413S12.124,191.147,10.24,191.147z"/>
	</g>
</g>
<g>
	<g>
		<path d="M3.413,152.048c-1.884,0-3.413,1.528-3.413,3.413v16.137c0,1.886,1.529,3.413,3.413,3.413
			c1.884,0,3.413-1.528,3.413-3.413v-16.137C6.827,153.574,5.298,152.048,3.413,152.048z"/>
	</g>
</g>
<g>
	<g>
		<path d="M3.413,119.777c-1.884,0-3.413,1.527-3.413,3.413v16.137c0,1.886,1.529,3.413,3.413,3.413
			c1.884,0,3.413-1.527,3.413-3.413v-16.137C6.827,121.306,5.298,119.777,3.413,119.777z"/>
	</g>
</g>
<g>
	<g>
		<path d="M3.413,87.504C1.529,87.504,0,89.033,0,90.918v16.137c0,1.886,1.529,3.413,3.413,3.413c1.884,0,3.413-1.527,3.413-3.413
			V90.918C6.827,89.033,5.298,87.504,3.413,87.504z"/>
	</g>
</g>
<g>
	<g>
		<path d="M3.413,22.961C1.529,22.961,0,24.488,0,26.374v16.137c0,1.886,1.529,3.413,3.413,3.413c1.884,0,3.413-1.526,3.413-3.413
			V26.374C6.827,24.488,5.298,22.961,3.413,22.961z"/>
	</g>
</g>
<g>
	<g>
		<path d="M3.413,55.233C1.529,55.233,0,56.761,0,58.647v16.137c0,1.886,1.529,3.413,3.413,3.413c1.884,0,3.413-1.526,3.413-3.413
			V58.647C6.827,56.761,5.298,55.233,3.413,55.233z"/>
	</g>
</g>
<g>
	<g>
		<path d="M10.24,0.001H3.413C1.529,0.001,0,1.527,0,3.414v6.827c0,1.886,1.529,3.413,3.413,3.413c1.884,0,3.413-1.527,3.413-3.413
			V6.828h3.413c1.884,0,3.413-1.527,3.413-3.413C13.653,1.527,12.124,0.001,10.24,0.001z"/>
	</g>
</g>
<g>
	<g>
		<path d="M74.781,0.001H58.646c-1.884,0-3.413,1.527-3.413,3.413c0,1.886,1.529,3.413,3.413,3.413h16.135
			c1.886,0,3.413-1.527,3.413-3.413C78.194,1.527,76.665,0.001,74.781,0.001z"/>
	</g>
</g>
<g>
	<g>
		<path d="M42.51,0.001H26.375c-1.884,0-3.413,1.527-3.413,3.413c0,1.886,1.529,3.413,3.413,3.413H42.51
			c1.886,0,3.413-1.527,3.413-3.413C45.923,1.527,44.394,0.001,42.51,0.001z"/>
	</g>
</g>
<g>
	<g>
		<path d="M107.054,0.001H90.919c-1.884,0-3.413,1.527-3.413,3.413c0,1.886,1.529,3.413,3.413,3.413h16.135
			c1.884,0,3.413-1.527,3.413-3.413C110.467,1.527,108.938,0.001,107.054,0.001z"/>
	</g>
</g>
<g>
	<g>
		<path d="M171.597,0.001h-16.135c-1.884,0-3.413,1.527-3.413,3.413c0,1.886,1.529,3.413,3.413,3.413h16.135
			c1.884,0,3.413-1.527,3.413-3.413C175.01,1.527,173.481,0.001,171.597,0.001z"/>
	</g>
</g>
<g>
	<g>
		<path d="M139.325,0.001H123.19c-1.884,0-3.413,1.527-3.413,3.413c0,1.886,1.529,3.413,3.413,3.413h16.135
			c1.884,0,3.413-1.527,3.413-3.413C142.739,1.527,141.21,0.001,139.325,0.001z"/>
	</g>
</g>
<g>
	<g>
		<path d="M194.56,0.001h-6.827c-1.884,0-3.413,1.527-3.413,3.413c0,1.886,1.529,3.413,3.413,3.413h3.413v3.413
			c0,1.886,1.529,3.413,3.413,3.413c1.884,0,3.413-1.527,3.413-3.413V3.414C197.973,1.527,196.444,0.001,194.56,0.001z"/>
	</g>
</g>
<g>
	<g>
		<path d="M194.56,55.233c-1.884,0-3.413,1.527-3.413,3.413v16.137c0,1.886,1.529,3.413,3.413,3.413
			c1.884,0,3.413-1.526,3.413-3.413V58.647C197.973,56.761,196.444,55.233,194.56,55.233z"/>
	</g>
</g>
<g>
	<g>
		<path d="M194.56,22.964c-1.884,0-3.413,1.527-3.413,3.413v16.137c0,1.886,1.529,3.413,3.413,3.413
			c1.884,0,3.413-1.526,3.413-3.413V26.378C197.973,24.492,196.444,22.964,194.56,22.964z"/>
	</g>
</g>
<g>
	<g>
		<path d="M194.56,152.051c-1.884,0-3.413,1.527-3.413,3.413V171.6c0,1.886,1.529,3.413,3.413,3.413
			c1.884,0,3.413-1.527,3.413-3.413v-16.137C197.973,153.579,196.444,152.051,194.56,152.051z"/>
	</g>
</g>
<g>
	<g>
		<path d="M194.56,119.777c-1.884,0-3.413,1.527-3.413,3.413v16.137c0,1.886,1.529,3.413,3.413,3.413
			c1.884,0,3.413-1.527,3.413-3.413v-16.137C197.973,121.306,196.444,119.777,194.56,119.777z"/>
	</g>
</g>
<g>
	<g>
		<path d="M194.56,87.509c-1.884,0-3.413,1.527-3.413,3.413v16.137c0,1.886,1.529,3.413,3.413,3.413
			c1.884,0,3.413-1.527,3.413-3.413V90.922C197.973,89.035,196.444,87.509,194.56,87.509z"/>
	</g>
</g>
<g>
	<g>
		<path d="M98.987,95.574H3.413C1.529,95.574,0,97.102,0,98.988v95.573c0,1.886,1.529,3.413,3.413,3.413h95.573
			c1.884,0,3.413-1.527,3.413-3.413V98.988C102.4,97.102,100.871,95.574,98.987,95.574z M95.574,191.147h-0.001H6.827v-88.747
			h88.747V191.147z"/>
	</g>
</g>
<g>
</g>
<g>
</g>
<g>
</g>
<g>
</g>
<g>
</g>
<g>
</g>
<g>
</g>
<g>
</g>
<g>
</g>
<g>
</g>
<g>
</g>
<g>
</g>
<g>
</g>
<g>
</g>
<g>
</g>
</svg>
