<svg fill="var(--color)"  viewBox="1 -19 511.99998 511" xmlns="http://www.w3.org/2000/svg"><path d="m333.988281.5-78.476562 49.667969-77.449219-48.65625-178.0625 106.839843 82.394531 51.761719-81.921875 81.921875 90.789063 54.476563v78.453125l164.28125 98.566406 164.277343-98.566406v-75.867188l91.683594-55.011718-82.957031-83.957032 83.453125-52.820312zm.414063 35.082031 120.675781 72.40625-50.402344 31.898438c-22.414062-13.449219-87.09375-52.257813-120.671875-72.402344zm-78.859375 194.039063-120.316407-72.191406 120.316407-72.191407 120.3125 72.191407zm-77.839844-193.058594 49.296875 30.96875-120.621094 72.375-49.300781-30.96875zm-69.1875 139.671875 122.941406 73.765625-59.871093 59.871094-122.941407-73.765625zm12.617187 138.195313 55.082032 33.050781 64.394531-64.390625v146.648437l-119.476563-71.683593zm268.816407 43.625-119.472657 71.683593v-146.339843l65.324219 66.109374 54.148438-32.488281zm-49.394531-46.230469-61.027344-61.765625 122.980468-73.789063 61.03125 61.765625zm0 0"/></svg>