<svg fill="var(--color)"  viewBox="-31 1 511 511.99986" xmlns="http://www.w3.org/2000/svg"><path d="m93.289062 155.832031c-.953124-11.726562-7.578124-20.632812-17.285156-23.242187-9.652344-2.597656-19.6875 1.597656-26.1875 10.957031-40.863281 58.839844-59.945312 128.023437-43.324218 197.699219 23.074218 96.738281 110.523437 170.753906 216.671874 170.753906 60.695313 0 99.820313-24.441406 107.132813-27.300781 97.730469-55.304688 127.355469-178.472657 118.714844-290.4375-3.394531-43.992188-12.921875-86.957031-26.824219-120.984375-10.558594-25.839844-28.683594-58.730469-55.066406-68.6875-31.457032-11.875-82.144532-.257813-129.125 29.589844-82.046875 52.132812-131.097656 141.679687-144.242188 241.386718-3.871094-11.394531-5.171875-23.632812-5.847656-35.570312-1.632812-28.929688 1.628906-51.453125 3.789062-66.355469 1.21875-8.390625 1.953126-13.453125 1.59375-17.808594zm11.785157 169.726563c6.15625-1.332032 16.441406-6.101563 16.140625-23.046875-.007813-.429688-.019532-1.015625-.011719-1.179688 11.671875-149.488281 96.816406-218.921875 132.878906-241.835937 44.445313-28.238282 84.261719-33.710938 102.449219-26.847656 12.328125 4.65625 26.496094 24.082031 37.890625 51.972656 12.757813 31.222656 21.523437 70.976562 24.683594 111.949218 3.527343 45.707032 6.492187 199.644532-103.476563 261.964844-28.195312 15.355469-60.164062 23.472656-92.464844 23.472656-91.585937 0-167.476562-63.785156-187.496093-147.722656-8.503907-35.640625-10.234375-89.226562 24.410156-150.753906-1.820313 14.882812-3.4375 34.734375-2.117187 58.15625 1.285156 22.75 4.925781 49.035156 22.164062 71.503906.257812.335938.515625.695313.78125 1.054688 2.574219 3.535156 10.421875 14.292968 24.167969 11.3125zm0 0"/></svg>