<svg viewBox="-31 0 512 512" xmlns="http://www.w3.org/2000/svg"><path d="m225 512c125.089844 0 225-161.8125 225-286 0-124.617188-100.933594-226-225-226s-225 101.382812-225 226c0 119.550781 92.90625 217.71875 210 225.503906v60.496094zm-195-286c0-108.074219 87.476562-196 195-196s195 87.925781 195 196c0 107.339844-83.082031 242.109375-180 255v-59h-15c-107.523438 0-195-87.925781-195-196zm0 0"/><path d="m270 331h15c41.355469 0 75-33.644531 75-75v-105h-120v120h30zm0-150h60v75c0 19.554688-12.539062 36.238281-30 42.429688v-57.429688h-30zm0 0"/><path d="m90 271h30v60h15c41.355469 0 75-33.644531 75-75v-105h-120zm30-90h60v75c0 19.554688-12.539062 36.238281-30 42.429688v-57.429688h-30zm0 0"/></svg>