<svg viewBox="-45 0 512 512" xmlns="http://www.w3.org/2000/svg"><path d="m90 0c-49.625 0-90 40.375-90 90v332c0 49.625 40.375 90 90 90s90-40.375 90-90v-45.546875l80.777344 100.574219c30.167968 39.035156 86.675781 46.648437 126.117187 16.28125 39.414063-30.34375 46.757813-86.796875 16.410157-126.214844l-89.652344-110.738281 89.457031-111.195313.195313-.253906c30.273437-39.320312 22.914062-95.941406-16.410157-126.214844-39.28125-30.246094-95.835937-22.929687-126.132812 16.300782l-80.761719 101.269531v-46.261719c0-49.625-40.375-90-90-90zm194.292969 53.605469.15625-.203125c20.183593-26.214844 57.929687-31.125 84.148437-10.941406 26.171875 20.152343 31.105469 57.816406 11.03125 84.027343l-104.527344 129.929688 104.539063 129.113281c20.113281 26.273438 15.179687 63.816406-11.042969 84.007812-26.214844 20.183594-63.964844 15.273438-84.148437-10.941406l-134.449219-167.402344v130.804688c0 33.085938-26.914062 60-60 60s-60-26.914062-60-60v-332c0-33.085938 26.914062-60 60-60s60 26.914062 60 60v131.988281zm0 0"/></svg>