<svg viewBox="0 -16 511.99901 511" xmlns="http://www.w3.org/2000/svg"><path d="m44.820312 323.644531-20.53125 8.019531c-21.765624 4.890626-31.234374 29.074219-18.65625 48.296876 12.382813 18.925781 39.378907 25.671874 60.078126 29.710937 1.28125 5.890625 3.136718 13.5 7.71875 20.148437 7.101562 10.300782 18.351562 14.839844 31.667968 12.777344 45.058594-6.957031 50.132813-3.359375 66.957032 8.5625 8.332031 5.902344 21.8125 14.96875 30.996093 19.300782 16.195313 6.671874 34.5625 9.996093 52.921875 9.996093 34.976563 0 57.550782-12.074219 57.648438-12.105469 20.152344-11.574218 46.648437-38.0625 87.203125-27.460937 11.914062 3.113281 22 2.109375 29.988281-2.980469 11.457031-7.300781 14.238281-20.105468 15.765625-28.355468 23.042969-4.714844 52.964844-11.640626 62.863281-35.453126 3.683594-8.859374 3.375-18.570312-.847656-26.632812-4.019531-7.6875-11.296875-13.304688-20.09375-15.566406l-21.234375-8.226563c-24.292969-9.414062-42.855469-28.328125-52.773437-53.167969h22.519531c24.8125 0 45-20.1875 45-45.003906 0-24.8125-20.1875-45-45-45h-29.941407l1.300782-14.257812c8.0625-88.707032-62.828125-165.746094-152.363282-165.746094-89.273437 0-160.453124 76.757812-152.363281 165.75l1.300781 14.253906h-29.945312c-24.8125 0-45 20.1875-45 45.003906 0 24.8125 20.1875 44.988282 45 44.988282h22.796875c-9.933594 24.699218-28.582031 43.617187-52.976563 53.148437zm30.179688-83.136719c-8.269531 0-15-6.730468-15-15 0-8.273437 6.730469-15.003906 15-15.003906h62.808594l-4.285156-46.972656c-6.632813-72.96875 52.277343-133.03125 122.484374-133.03125 70.171876 0 129.117188 60.039062 122.484376 133.027344l-4.28125 46.976562h62.800781c8.273437 0 15 6.730469 15 15.003906 0 8.269532-6.726563 15-15 15h-61.132813l3.8125 18.09375c9.234375 43.816407 37.203125 77.730469 76.734375 93.046876l23.28125 9.023437c1.109375.324219 1.042969.074219 2.292969.679687.027344.089844.035156.519532-.261719 1.234376-4.183593 10.066406-30.023437 15.3125-43.90625 18.132812-1.726562.351562-3.394531.6875-4.984375 1.019531-12.160156 2.546875-14.382812 14.753907-15.578125 21.3125-.476562 2.613281-1.445312 7.933594-2.617187 9.523438-.554688.105469-2.410156.292969-6.242188-.710938-53.691406-14.03125-90.191406 18.925781-109.09375 30.105469-25.328125 11.089844-58.183594 11.492188-84.15625 1.03125-11.421875-6.15625-19.03125-11.546875-25.761718-16.316406-22.0625-15.632813-34.121094-22.1875-88.882813-13.730469-1.257813.191406-1.9375.136719-2.207031.09375-1.542969-1.640625-2.941406-8.167969-3.550782-10.996094-1.457031-6.800781-3.898437-18.183593-15.589843-20.367187l-1.085938-.203125c-13.164062-2.453125-40.550781-7.558594-47.34375-17.945313-.824219-1.257812-.777343-2.074218-.695312-2.261718.136719-.316407 2.152343-.546876 2.511719-.628907l23.179687-9.054687c39.222656-15.320313 67.503906-49.460938 76.746094-92.296875l4.070312-18.785157zm0 0"/></svg>