<svg fill="var(--color)"  viewBox="-30 0 511 511.9993" xmlns="http://www.w3.org/2000/svg"><path d="m1.527344 90.96875c8.101562 126.0625 72.527344 306.765625 147.53125 377.425781 21.625 21.613281 40.140625 38.53125 63.644531 42.800781l-.015625.164063c37.101562 7.105469 83.425781-46.8125 106.925781-76.253906 29.265625-36.667969 56.039063-78.785157 68.574219-103.796875 23.28125-.792969 28.160156-1.421875 51.835938-7.105469l11.488281-2.761719v-89.222656l-18.761719 4.875c-33.210938 8.625-62.210938 5.023438-83.859375-10.417969-23.234375-16.570312-37.1875-46.171875-40.375-85.636719.105469-13.804687 4.066406-39.074218 18.414063-41.003906 4.101562.289063 6.96875 1.941406 9.480468 5.429688 9.878906 13.703125 8.644532 46.335937 1.839844 68.710937l-2.289062 7.523438c3.246093 2.652343 15.582031 29.464843 59.933593 29.464843 20.832031-.003906 38.558594-5.988281 43.4375-7.039062 1.527344-6.710938 10.832031-30.539062 12.183594-75.066406l.011719-.363282-.007813-.363281c-1.355469-74.792969-42.792969-128.332031-119.003906-128.332031l-.429687.0078125c-46.167969 1.3164065-82.65625 20.1757815-105.519532 54.5351565-28.789062 43.253906-31.796875 105.859375-8.046875 167.484375 10.335938 26.695312 30.046875 61.472656 66.519531 83.65625-21.449218 38.101562-42.089843 67.683594-62.621093 89.734375-57.746094-71.421875-90.300781-162.167969-111.066407-307.535157l-1.839843-12.878906h-109.011719zm82.011718 14.039062c18.046876 119.785157 46.890626 231.46875 126.6875 322.503907l10.253907 11.699219 11.316406-10.671876c28.925781-27.269531 57.355469-67.109374 86.910156-121.789062l7.597657-14.054688-14.507813-6.695312c-36.574219-16.882812-55.695313-49.996094-65.289063-74.78125-19.945312-51.75-18.019531-105.417969 5.03125-140.054688 17.207032-25.851562 45.277344-40.082031 81.191407-41.160156 78.199219.125 88.171875 68.621094 88.785156 98.519532-.597656 19.082031-2.566406 34.730468-6.449219 50.636718-14.464844 2.816406-33.5625 4-45.734375-5.105468 10.664063-45.214844 3.035157-102.847657-42.421875-104.042969l-.773437-.023438-.769531.0625c-33.347657 2.5625-46.855469 37.679688-46.855469 71.558594l.046875 1.164063c3.800781 48.894531 22.097656 86.359374 52.914062 108.332031 24.707032 17.625 55.550782 24.03125 90.046875 18.882812v27.734375c-14.625 3.234375-19.550781 3.132813-53.027343 4.210938-.054688.097656-16.789063 44.875-72.328126 114.457031-43.085937 53.980469-68.585937 66.589844-77.328124 65.582031l.011718-.160156c-18.328125-2.894531-35.648437-22.523438-49.074218-35.117188-70.050782-65.808593-126.613282-235.136718-137.015626-341.6875zm0 0"/></svg>